<?xml version="1.0" encoding="utf-8"?>
<!-- Generator: Adobe Illustrator 19.1.0, SVG Export Plug-In . SVG Version: 6.00 Build 0)  -->
<svg version="1.1" id="Layer_1" xmlns="http://www.w3.org/2000/svg" xmlns:xlink="http://www.w3.org/1999/xlink" x="0px" y="0px"
	 width="200px" height="200px" viewBox="-439 861 200 200" enable-background="new -439 861 200 200" xml:space="preserve">
<g>
	<path fill="#FFFFFF" d="M-240.15,953.2c0,0-2.6,2.3-7.1,6c-24.7,21.8-66.7,25.8-91.7,1.8c14,32,54,44,85.3,33.4
		c5.6-1.7,8.8-2.8,8.8-2.8c0.8-2.4,1.5-4.9,2.1-7.5c0.6-2.5,1.1-5,1.5-7.6c0,0-3,1.5-8.3,4.1c-29.4,14.4-70.4,9.4-89.4-19.6
		c21,28,62,30,90.7,12.5c5-3,7.9-4.8,7.9-4.8c0.2-2.5,0.3-5.1,0.3-7.7C-240.05,958.4-240.05,955.8-240.15,953.2z"/>
	<path fill="#E4E837" d="M-241.05,976.5c0.4-2.5,0.7-5.1,0.9-7.7c0,0-2.9,1.8-7.9,4.8c-28.9,17.4-69.9,15.4-90.9-12.6
		c19,29,60,34,89.5,19.6C-244.05,978-241.05,976.5-241.05,976.5z"/>
	<path fill="#FFFFFF" d="M-338.45,961.1c26.5,20.9,66.5,14.9,90.7-9.1c4.2-4.1,6.6-6.5,6.6-6.5c-0.4-2.6-0.9-5.2-1.5-7.7
		s-1.3-5-2.1-7.4c0,0-2,2.8-5.5,7.4C-269.95,965-307.95,979-338.45,961.1L-338.45,961.1z"/>
	<path fill="#E4E837" d="M-338.45,961c30.6,18,68.6,4,88.2-23.2c3.5-4.7,5.5-7.4,5.5-7.4c-0.8-2.5-1.7-4.9-2.7-7.3l0,0
		c0,0-1.8,2.9-4.9,7.8c-16.6,26-48.6,43-79.3,32.7C-335.95,962.2-338.45,961-338.45,961z"/>
	<path fill="#E4E837" d="M-338.75,961c24.9,24,66.9,20,91.4-1.8c4.5-3.7,7.1-6,7.1-6c-0.2-2.6-0.5-5.2-0.9-7.7c0,0-2.4,2.4-6.6,6.5
		c-24.2,24-64.2,30-91.2,9c12,32,50,48,82.4,40c5.7-1.3,9-2.1,9-2.1l0,0c1-2.4,1.9-4.8,2.7-7.3c0,0-3.2,1-8.8,2.8
		C-284.95,1005-324.95,993-338.75,961L-338.75,961z"/>
	<path fill="#FFFFFF" d="M-338.75,961.2c-10.2,33.8,12.8,67.8,43.1,80.6c5.4,2.3,8.5,3.7,8.5,3.7l0,0c2.2-1.3,4.4-2.8,6.5-4.3
		c2.1-1.5,4.1-3.1,6-4.8c2-1.6,3.9-3.4,5.8-5.3c1.8-1.8,3.6-3.8,5.3-5.8c1.7-1.9,3.3-4,4.8-6c1.5-2.1,3-4.3,4.3-6.5
		c1.4-2.2,2.7-4.5,3.8-6.8c1.2-2.3,2.3-4.7,3.3-7.1l0,0c0,0-3.3,0.8-9,2.1c-30.4,8-65.4-5-79.3-33.1
		C-337.75,963.8-338.75,961.2-338.75,961.2z"/>
	<path fill="#FFFFFF" d="M-338.65,960.9c31.7,16.1,68.7-1.9,86.4-29.9c3.1-4.9,4.9-7.8,4.9-7.8l0,0c-1-2.4-2-4.8-3.3-7
		c-1.1-2.3-2.4-4.6-3.8-6.8c-1.3-2.2-2.8-4.4-4.3-6.5s-3.1-4.1-4.8-6.1c-1.6-2-3.4-3.9-5.3-5.7c-1.8-1.9-3.8-3.7-5.7-5.3
		c0,0-0.3,3.4-0.8,9.2C-276.95,928-304.95,960-338.65,960.9L-338.65,960.9z"/>
	<path fill="#FD0172" d="M-338.95,961.2c-34,5.8-56,41.8-52.2,75.1c0.4,5.8,0.5,9.1,0.5,9.1l0,0c2.2,1.4,4.5,2.7,6.8,3.8
		c2.3,1.2,4.6,2.3,7,3.3c2.4,1,4.8,1.9,7.3,2.7c2.4,0.8,4.9,1.5,7.4,2.1s5.1,1.1,7.6,1.5s5.1,0.7,7.7,0.9c2.5,0.2,5.1,0.3,7.7,0.3
		c2.6,0,5.2-0.1,7.7-0.3c2.6-0.2,5.2-0.5,7.7-0.9c2.6-0.4,5.1-0.9,7.6-1.5s5-1.2,7.5-2.1c2.5-0.8,4.9-1.7,7.3-2.7
		c2.4-1,4.8-2,7.1-3.3c2.3-1.1,4.6-2.4,6.8-3.8l0,0c0,0-3.1-1.3-8.5-3.7c-29-12.7-49-41.7-44.6-73.4
		C-339.75,963.8-338.95,961.2-338.95,961.2z"/>
	<path fill="#FD0172" d="M-338.75,960.7c33.9-0.7,61.9-32.7,63.4-65.8c0.5-5.8,0.8-9.2,0.8-9.2c-1.9-1.7-4-3.3-6.1-4.8
		c-2.1-1.5-4.3-3-6.5-4.3c-2.2-1.4-4.5-2.7-6.8-3.8c-2.3-1.2-4.7-2.3-7.1-3.3c-2.4-1-4.8-1.9-7.3-2.7c-2.4-0.8-4.9-1.5-7.5-2.1
		c-2.5-0.6-5-1.1-7.6-1.5c-2.5-0.4-5.1-0.7-7.7-0.9c-2.5-0.2-5.1-0.3-7.7-0.3c-2.6,0-5.2,0.1-7.7,0.3c-2.6,0.2-5.2,0.5-7.7,0.9
		c-2.6,0.4-5.1,0.9-7.6,1.5s-5,1.3-7.4,2.1c-2.5,0.8-4.9,1.7-7.3,2.7c-2.4,1-4.8,2-7,3.3c-2.3,1.1-4.6,2.4-6.8,3.8
		c-2.2,1.3-4.4,2.8-6.5,4.3c0,0,3.1,1.2,8.6,3.1C-356.95,893-330.95,927-338.75,960.7L-338.75,960.7z"/>
	<path fill="#FFFFFF" d="M-338.95,960.7c8-33.7-18-67.7-49.6-76.8c-5.5-1.9-8.6-3.1-8.6-3.1c-2.1,1.5-4.1,3.1-6.1,4.8
		c-2,1.6-3.9,3.4-5.7,5.3c-1.8,1.8-3.6,3.8-5.2,5.7c-1.7,2-3.4,4-4.9,6.1s-3,4.2-4.3,6.4c-1.4,2.2-2.7,4.5-3.8,6.8
		c-1.2,2.3-2.3,4.6-3.3,7c0,0,3.2-0.6,8.9-1.9c31.6-7,70.6,6,82.5,39.5L-338.95,960.7z"/>
	<path fill="#E4E837" d="M-338.95,960.7c-19-29.7-61-34.7-89.5-19.1c-5.2,2.6-8.2,3.9-8.2,3.9l0,0c-0.4,2.5-0.7,5.1-0.9,7.7
		c0,0,2.9-1.5,7.9-4.5C-401.95,931-359.95,933-338.95,960.7L-338.95,960.7z"/>
	<path fill="#E4E837" d="M-338.95,960.5c-11-33.5-51-46.5-82.5-39.2c-5.7,1.3-8.9,1.9-8.9,1.9c-1,2.4-1.9,4.8-2.7,7.3l0,0
		c0,0,3.2-0.8,8.7-2.6c28.5-9.9,65.5-0.9,81.9,26.2C-340.15,958-338.95,960.5-338.95,960.5z"/>
	<path fill="#FFFFFF" d="M-339.15,960.9c-20.8-27.9-62.8-29.9-90.5-12.2c-5,3-7.9,4.5-7.9,4.5c-0.3,2.6-0.4,5.2-0.4,7.8
		s0.1,5.2,0.3,7.7c0,0,2.6-2,7.1-5.7c24.6-22,66.6-26,91.6-2c-27-22-67-15-91.1,9.2c-4.2,4.1-6.6,6.3-6.6,6.3l0,0
		c0.4,2.6,0.9,5.1,1.5,7.6c0.6,2.5,1.3,5,2.1,7.5c0.8,2.5,1.7,4.9,2.7,7.3c0,0,1.9-2.7,5-7.6c16.4-29.3,54.4-45.3,85.4-31.3
		c-33-10-68,8-82.8,38c-2.7,5.2-4.4,8-4.4,8c1.2,2.3,2.4,4.6,3.8,6.8c1.3,2.2,2.8,4.4,4.3,6.4c1.5,2.1,3.1,4.1,4.8,6.1
		c1.6,2,3.4,3.9,5.3,5.7c1.8,1.8,3.7,3.6,5.7,5.3c1.9,1.7,4,3.3,6.1,4.8c2.1,1.5,4.3,3,6.5,4.3l0,0c0,0-0.1-3.3-0.5-9.1
		c-2.8-30.3,14.2-64.3,44.9-73.5C-341.75,961.5-339.15,960.9-339.15,960.9z"/>
	<path fill="#FFFFFF" d="M-338.95,960.7c-14-31.7-54-43.7-85.4-32.8c-5.6,1.7-8.7,2.6-8.7,2.6l0,0c-0.8,2.4-1.5,4.9-2.1,7.4
		c-0.6,2.5-1.1,5.1-1.5,7.7l0,0c0,0,3-1.3,8.2-3.9c27.5-14.7,64.5-10.7,85,13.2C-340.45,958.4-338.95,960.7-338.95,960.7z"/>
	<path fill="#E4E837" d="M-430.45,998.9c1,2.4,2,4.8,3.3,7.1c0,0,1.7-2.8,4.4-8c14.8-30,50.8-50,83.8-37c-30-16-70,1-86.5,30.3
		C-428.45,996.2-430.45,998.9-430.45,998.9z"/>
	<path fill="#E4E837" d="M-339.15,960.7c-24.8-23.7-66.8-19.7-91.3,2.3c-4.5,3.7-7.1,5.7-7.1,5.7c0.2,2.6,0.5,5.2,0.9,7.7l0,0
		c0,0,2.4-2.2,6.6-6.3c22.2-22.1,58.2-30.1,85-13.6C-341.15,959-339.15,960.7-339.15,960.7z"/>
</g>
</svg>
